<svg width="1720" height="980" viewBox="0 0 1720 980" fill="none" xmlns="http://www.w3.org/2000/svg">
  <rect width="1720" height="980" fill="#F6F8FB"/>

  <text x="70" y="70" fill="#0F172A" font-family="Inter, Arial, sans-serif" font-size="30" font-weight="800">写作工作区题单展开原型</text>
  <text x="70" y="104" fill="#64748B" font-family="Inter, Arial, sans-serif" font-size="18">左：默认写作态  右：点击“查看题单”后的展开态</text>

  <rect x="50" y="140" width="770" height="790" rx="30" fill="#FFFFFF" stroke="#E2E8F0" stroke-width="2"/>
  <rect x="900" y="140" width="770" height="790" rx="30" fill="#FFFFFF" stroke="#E2E8F0" stroke-width="2"/>

  <text x="84" y="185" fill="#0F172A" font-family="Inter, Arial, sans-serif" font-size="22" font-weight="700">默认视图</text>
  <text x="934" y="185" fill="#0F172A" font-family="Inter, Arial, sans-serif" font-size="22" font-weight="700">展开题单</text>

  <!-- Left workspace -->
  <rect x="80" y="215" width="710" height="90" rx="24" fill="#FFFFFF"/>
  <text x="106" y="270" fill="#94A3B8" font-family="Inter, Arial, sans-serif" font-size="32">‹</text>
  <text x="335" y="270" fill="#0F172A" font-family="Inter, Arial, sans-serif" font-size="24" font-weight="700">考试写作</text>
  <text x="595" y="270" fill="#64748B" font-family="Inter, Arial, sans-serif" font-size="20">0 词 · 0 句 · 0 段</text>

  <rect x="590" y="226" width="128" height="46" rx="23" fill="#FFFFFF" stroke="#CBD5E1" stroke-width="2"/>
  <text x="626" y="256" fill="#334155" font-family="Inter, Arial, sans-serif" font-size="18" font-weight="700">查看题单</text>

  <rect x="728" y="220" width="52" height="58" rx="16" fill="#7AC3AF"/>
  <text x="744" y="258" fill="#FFFFFF" font-family="Inter, Arial, sans-serif" font-size="20" font-weight="800">提交</text>

  <rect x="96" y="336" width="664" height="532" rx="26" fill="#FFFFFF"/>
  <text x="120" y="402" fill="#CBD5E1" font-family="Georgia, Times New Roman, serif" font-size="28">在此输入英文作文...</text>
  <line x1="118" y1="468" x2="720" y2="468" stroke="#E2E8F0" stroke-width="2"/>
  <line x1="118" y1="536" x2="690" y2="536" stroke="#EEF2F7" stroke-width="2"/>
  <line x1="118" y1="604" x2="708" y2="604" stroke="#EEF2F7" stroke-width="2"/>
  <line x1="118" y1="672" x2="676" y2="672" stroke="#EEF2F7" stroke-width="2"/>
  <line x1="118" y1="740" x2="640" y2="740" stroke="#EEF2F7" stroke-width="2"/>

  <rect x="742" y="396" width="36" height="312" rx="18" fill="#FFFFFF" stroke="#E2E8F0" stroke-width="2"/>
  <rect x="748" y="412" width="24" height="48" rx="12" fill="#FCE7F3"/>
  <rect x="748" y="472" width="24" height="48" rx="12" fill="#ECFDF5"/>
  <rect x="748" y="532" width="24" height="48" rx="12" fill="#E0F2FE"/>
  <rect x="748" y="592" width="24" height="48" rx="12" fill="#FEF3C7"/>
  <rect x="748" y="652" width="24" height="48" rx="12" fill="#F1F5F9"/>

  <!-- Right workspace expanded -->
  <rect x="930" y="215" width="710" height="90" rx="24" fill="#FFFFFF"/>
  <text x="956" y="270" fill="#94A3B8" font-family="Inter, Arial, sans-serif" font-size="32">‹</text>
  <text x="1210" y="270" fill="#0F172A" font-family="Inter, Arial, sans-serif" font-size="24" font-weight="700">考试写作</text>
  <text x="1450" y="270" fill="#64748B" font-family="Inter, Arial, sans-serif" font-size="20">132 词 · 6 句 · 2 段</text>

  <rect x="1450" y="226" width="128" height="46" rx="23" fill="#0F766E"/>
  <text x="1486" y="256" fill="#FFFFFF" font-family="Inter, Arial, sans-serif" font-size="18" font-weight="700">收起题单</text>

  <rect x="1588" y="220" width="52" height="58" rx="16" fill="#7AC3AF"/>
  <text x="1604" y="258" fill="#FFFFFF" font-family="Inter, Arial, sans-serif" font-size="20" font-weight="800">提交</text>

  <rect x="946" y="336" width="352" height="532" rx="26" fill="#FFFFFF"/>
  <text x="970" y="402" fill="#CBD5E1" font-family="Georgia, Times New Roman, serif" font-size="28">在此输入英文作文...</text>
  <line x1="968" y1="468" x2="1258" y2="468" stroke="#E2E8F0" stroke-width="2"/>
  <line x1="968" y1="536" x2="1228" y2="536" stroke="#EEF2F7" stroke-width="2"/>
  <line x1="968" y1="604" x2="1246" y2="604" stroke="#EEF2F7" stroke-width="2"/>
  <line x1="968" y1="672" x2="1214" y2="672" stroke="#EEF2F7" stroke-width="2"/>
  <line x1="968" y1="740" x2="1178" y2="740" stroke="#EEF2F7" stroke-width="2"/>

  <rect x="1308" y="336" width="302" height="532" rx="28" fill="#FFFDFC" stroke="#E8EDF5" stroke-width="2"/>
  <rect x="1328" y="356" width="262" height="54" rx="18" fill="#F8FAFC"/>
  <text x="1360" y="389" fill="#334155" font-family="Inter, Arial, sans-serif" font-size="20" font-weight="700">当前题单</text>
  <text x="1550" y="389" fill="#94A3B8" font-family="Inter, Arial, sans-serif" font-size="18">×</text>

  <text x="1376" y="446" fill="#334155" font-family="Inter, Arial, sans-serif" font-size="18" font-weight="800">Task 1</text>
  <text x="1328" y="490" fill="#8B6A2B" font-family="Inter, Arial, sans-serif" font-size="17" font-weight="800" letter-spacing="1.5">DIRECTIONS:</text>

  <text x="1328" y="532" fill="#0F172A" font-family="Georgia, Times New Roman, serif" font-size="20">Write an essay of about 200 words based on</text>
  <text x="1328" y="563" fill="#0F172A" font-family="Georgia, Times New Roman, serif" font-size="20">the picture below. In your essay, describe</text>
  <text x="1328" y="594" fill="#0F172A" font-family="Georgia, Times New Roman, serif" font-size="20">the scene briefly, interpret its implication,</text>
  <text x="1328" y="625" fill="#0F172A" font-family="Georgia, Times New Roman, serif" font-size="20">and give your own comments.</text>

  <circle cx="1340" cy="675" r="5.5" fill="#0F172A"/>
  <text x="1356" y="682" fill="#0F172A" font-family="Georgia, Times New Roman, serif" font-size="19">字数要求：200 词   满分：100 分</text>

  <text x="1328" y="730" fill="#8B6A2B" font-family="Inter, Arial, sans-serif" font-size="16" font-weight="800" letter-spacing="1.4">VISUAL ATTACHMENT</text>
  <rect x="1328" y="748" width="262" height="100" rx="16" fill="#F1F5F9" stroke="#D7E0EA" stroke-width="2"/>
  <rect x="1344" y="764" width="92" height="68" rx="10" fill="#CDE7F6"/>
  <rect x="1450" y="764" width="124" height="12" rx="6" fill="#D5DEE8"/>
  <rect x="1450" y="788" width="108" height="10" rx="5" fill="#E2E8F0"/>
  <rect x="1450" y="808" width="96" height="10" rx="5" fill="#E2E8F0"/>
  <rect x="1450" y="828" width="84" height="10" rx="5" fill="#E2E8F0"/>

  <rect x="1592" y="396" width="36" height="312" rx="18" fill="#FFFFFF" stroke="#E2E8F0" stroke-width="2"/>
  <rect x="1598" y="412" width="24" height="48" rx="12" fill="#FCE7F3"/>
  <rect x="1598" y="472" width="24" height="48" rx="12" fill="#ECFDF5"/>
  <rect x="1598" y="532" width="24" height="48" rx="12" fill="#E0F2FE"/>
  <rect x="1598" y="592" width="24" height="48" rx="12" fill="#FEF3C7"/>
  <rect x="1598" y="652" width="24" height="48" rx="12" fill="#F1F5F9"/>

  <!-- Notes -->
  <rect x="82" y="876" width="708" height="30" rx="15" fill="#FEF3C7"/>
  <text x="104" y="896" fill="#92400E" font-family="Inter, Arial, sans-serif" font-size="16" font-weight="600">入口放在顶部操作区，不占用右侧工具栏，也不影响提交链路。</text>

  <rect x="932" y="876" width="708" height="30" rx="15" fill="#DCFCE7"/>
  <text x="954" y="896" fill="#166534" font-family="Inter, Arial, sans-serif" font-size="16" font-weight="600">展开后题单只读展示；正文编辑区缩窄，但保持主输入焦点不变。</text>
</svg>
